<svg xmlns="http://www.w3.org/2000/svg" xmlns:xlink="http://www.w3.org/1999/xlink" width="500" zoomAndPan="magnify" viewBox="0 0 375 374.999991" height="500" preserveAspectRatio="xMidYMid meet" version="1.0"><defs><clipPath id="a8d7019e8f"><path d="M 24.207031 65.179688 L 190 65.179688 L 190 142 L 24.207031 142 Z M 24.207031 65.179688 " clip-rule="nonzero"/></clipPath><clipPath id="e39fed6842"><path d="M 184 65.179688 L 350.457031 65.179688 L 350.457031 142 L 184 142 Z M 184 65.179688 " clip-rule="nonzero"/></clipPath><clipPath id="9cba276f41"><path d="M 24.207031 75 L 190 75 L 190 153 L 24.207031 153 Z M 24.207031 75 " clip-rule="nonzero"/></clipPath><clipPath id="7ed9e86fdd"><path d="M 184 75 L 350.457031 75 L 350.457031 153 L 184 153 Z M 184 75 " clip-rule="nonzero"/></clipPath><clipPath id="866e50f4db"><path d="M 24.207031 136 L 30 136 L 30 153 L 24.207031 153 Z M 24.207031 136 " clip-rule="nonzero"/></clipPath><clipPath id="b0b4b4568f"><path d="M 345 136 L 350.457031 136 L 350.457031 153 L 345 153 Z M 345 136 " clip-rule="nonzero"/></clipPath><clipPath id="f54d267eee"><path d="M 90 177 L 96 177 L 96 309.679688 L 90 309.679688 Z M 90 177 " clip-rule="nonzero"/></clipPath><clipPath id="d6ef84b890"><path d="M 278 177 L 284 177 L 284 309.679688 L 278 309.679688 Z M 278 177 " clip-rule="nonzero"/></clipPath><clipPath id="7bc09ba610"><path d="M 44 294 L 50 294 L 50 309.679688 L 44 309.679688 Z M 44 294 " clip-rule="nonzero"/></clipPath><clipPath id="c4860a38ac"><path d="M 44 304 L 86 304 L 86 309.679688 L 44 309.679688 Z M 44 304 " clip-rule="nonzero"/></clipPath><clipPath id="58c80fbfda"><path d="M 324 294 L 330 294 L 330 309.679688 L 324 309.679688 Z M 324 294 " clip-rule="nonzero"/></clipPath><clipPath id="57fea09743"><path d="M 289 304 L 330 304 L 330 309.679688 L 289 309.679688 Z M 289 304 " clip-rule="nonzero"/></clipPath></defs><path fill="#000000" d="M 134.066406 259.070312 C 132.664062 259.070312 131.5 257.933594 131.5 256.523438 C 131.5 255.117188 132.613281 253.976562 134.019531 253.976562 L 134.066406 253.976562 C 135.472656 253.976562 136.613281 255.117188 136.613281 256.523438 C 136.613281 257.933594 135.472656 259.070312 134.066406 259.070312 Z M 134.066406 259.070312 " fill-opacity="1" fill-rule="nonzero"/><path fill="#000000" d="M 164.589844 259.070312 C 163.1875 259.070312 162.023438 257.933594 162.023438 256.523438 C 162.023438 255.117188 163.136719 253.976562 164.539062 253.976562 L 164.589844 253.976562 C 165.996094 253.976562 167.132812 255.117188 167.132812 256.523438 C 167.132812 257.933594 165.996094 259.070312 164.589844 259.070312 Z M 164.589844 259.070312 " fill-opacity="1" fill-rule="nonzero"/><path fill="#000000" d="M 195.109375 259.070312 C 193.710938 259.070312 192.546875 257.933594 192.546875 256.523438 C 192.546875 255.117188 193.660156 253.976562 195.0625 253.976562 L 195.109375 253.976562 C 196.523438 253.976562 197.65625 255.117188 197.65625 256.523438 C 197.65625 257.933594 196.523438 259.070312 195.109375 259.070312 Z M 195.109375 259.070312 " fill-opacity="1" fill-rule="nonzero"/><path fill="#000000" d="M 190.027344 228.5 C 188.625 228.5 187.457031 227.359375 187.457031 225.953125 C 187.457031 224.542969 188.570312 223.402344 189.976562 223.402344 L 190.027344 223.402344 C 191.433594 223.402344 192.566406 224.542969 192.566406 225.953125 C 192.566406 227.359375 191.433594 228.5 190.027344 228.5 Z M 190.027344 228.5 " fill-opacity="1" fill-rule="nonzero"/><path fill="#000000" d="M 169.675781 228.5 C 168.273438 228.5 167.109375 227.359375 167.109375 225.953125 C 167.109375 224.542969 168.222656 223.402344 169.628906 223.402344 L 169.675781 223.402344 C 171.082031 223.402344 172.222656 224.542969 172.222656 225.953125 C 172.222656 227.359375 171.082031 228.5 169.675781 228.5 Z M 169.675781 228.5 " fill-opacity="1" fill-rule="nonzero"/><path fill="#000000" d="M 210.375 228.5 C 208.972656 228.5 207.808594 227.359375 207.808594 225.953125 C 207.808594 224.542969 208.921875 223.402344 210.324219 223.402344 L 210.375 223.402344 C 211.785156 223.402344 212.917969 224.542969 212.917969 225.953125 C 212.917969 227.359375 211.785156 228.5 210.375 228.5 Z M 210.375 228.5 " fill-opacity="1" fill-rule="nonzero"/><g clip-path="url(#a8d7019e8f)"><path fill="#000000" d="M 27.085938 141.878906 C 26.109375 141.878906 25.179688 141.316406 24.757812 140.363281 C 24.191406 139.082031 24.765625 137.574219 26.050781 137 L 186.296875 65.664062 C 187.585938 65.085938 189.082031 65.675781 189.65625 66.957031 C 190.226562 68.242188 189.648438 69.75 188.363281 70.320312 L 28.117188 141.660156 C 27.78125 141.808594 27.429688 141.878906 27.085938 141.878906 Z M 27.085938 141.878906 " fill-opacity="1" fill-rule="nonzero"/></g><g clip-path="url(#e39fed6842)"><path fill="#000000" d="M 347.578125 141.878906 C 347.230469 141.878906 346.882812 141.808594 346.546875 141.660156 L 186.296875 70.320312 C 185.015625 69.75 184.4375 68.242188 185.007812 66.957031 C 185.582031 65.671875 187.082031 65.097656 188.363281 65.664062 L 348.613281 137 C 349.894531 137.574219 350.472656 139.082031 349.90625 140.367188 C 349.480469 141.316406 348.554688 141.878906 347.578125 141.878906 Z M 347.578125 141.878906 " fill-opacity="1" fill-rule="nonzero"/></g><g clip-path="url(#9cba276f41)"><path fill="#000000" d="M 27.085938 152.070312 C 26.109375 152.070312 25.179688 151.507812 24.757812 150.554688 C 24.191406 149.273438 24.765625 147.765625 26.050781 147.191406 L 186.296875 75.855469 C 187.585938 75.273438 189.082031 75.867188 189.65625 77.148438 C 190.226562 78.433594 189.648438 79.941406 188.363281 80.511719 L 28.117188 151.851562 C 27.78125 152 27.429688 152.070312 27.085938 152.070312 Z M 27.085938 152.070312 " fill-opacity="1" fill-rule="nonzero"/></g><g clip-path="url(#7ed9e86fdd)"><path fill="#000000" d="M 347.578125 152.070312 C 347.230469 152.070312 346.882812 152 346.546875 151.851562 L 186.296875 80.511719 C 185.015625 79.941406 184.4375 78.433594 185.007812 77.148438 C 185.582031 75.863281 187.082031 75.28125 188.363281 75.855469 L 348.613281 147.191406 C 349.894531 147.765625 350.472656 149.273438 349.90625 150.554688 C 349.480469 151.507812 348.554688 152.070312 347.578125 152.070312 Z M 347.578125 152.070312 " fill-opacity="1" fill-rule="nonzero"/></g><g clip-path="url(#866e50f4db)"><path fill="#000000" d="M 27.085938 152.070312 C 25.679688 152.070312 24.539062 150.929688 24.539062 149.519531 L 24.539062 139.332031 C 24.539062 137.921875 25.679688 136.78125 27.085938 136.78125 C 28.492188 136.78125 29.628906 137.921875 29.628906 139.332031 L 29.628906 149.519531 C 29.628906 150.929688 28.492188 152.070312 27.085938 152.070312 Z M 27.085938 152.070312 " fill-opacity="1" fill-rule="nonzero"/></g><g clip-path="url(#b0b4b4568f)"><path fill="#000000" d="M 347.578125 152.070312 C 346.171875 152.070312 345.035156 150.929688 345.035156 149.519531 L 345.035156 139.332031 C 345.035156 137.921875 346.171875 136.78125 347.578125 136.78125 C 348.984375 136.78125 350.125 137.921875 350.125 139.332031 L 350.125 149.519531 C 350.125 150.929688 348.984375 152.070312 347.578125 152.070312 Z M 347.578125 152.070312 " fill-opacity="1" fill-rule="nonzero"/></g><path fill="#000000" d="M 52.519531 299.835938 C 51.113281 299.835938 49.976562 298.695312 49.976562 297.289062 L 49.976562 138.195312 C 49.976562 136.789062 51.113281 135.648438 52.519531 135.648438 C 53.925781 135.648438 55.0625 136.789062 55.0625 138.195312 L 55.0625 297.289062 C 55.0625 298.695312 53.925781 299.835938 52.519531 299.835938 Z M 52.519531 299.835938 " fill-opacity="1" fill-rule="nonzero"/><path fill="#000000" d="M 322.144531 299.835938 C 320.738281 299.835938 319.597656 298.695312 319.597656 297.289062 L 319.597656 138.195312 C 319.597656 136.789062 320.738281 135.648438 322.144531 135.648438 C 323.546875 135.648438 324.6875 136.789062 324.6875 138.195312 L 324.6875 297.289062 C 324.6875 298.695312 323.546875 299.835938 322.144531 299.835938 Z M 322.144531 299.835938 " fill-opacity="1" fill-rule="nonzero"/><g clip-path="url(#f54d267eee)"><path fill="#000000" d="M 93.21875 310.027344 C 91.8125 310.027344 90.675781 308.886719 90.675781 307.480469 L 90.675781 180.09375 C 90.675781 178.6875 91.8125 177.546875 93.21875 177.546875 C 94.625 177.546875 95.761719 178.683594 95.761719 180.09375 L 95.761719 307.480469 C 95.761719 308.886719 94.625 310.027344 93.21875 310.027344 Z M 93.21875 310.027344 " fill-opacity="1" fill-rule="nonzero"/></g><g clip-path="url(#d6ef84b890)"><path fill="#000000" d="M 281.445312 310.027344 C 280.039062 310.027344 278.902344 308.886719 278.902344 307.480469 L 278.902344 180.09375 C 278.902344 178.6875 280.039062 177.546875 281.445312 177.546875 C 282.851562 177.546875 283.988281 178.683594 283.988281 180.09375 L 283.988281 307.480469 C 283.988281 308.886719 282.851562 310.027344 281.445312 310.027344 Z M 281.445312 310.027344 " fill-opacity="1" fill-rule="nonzero"/></g><path fill="#000000" d="M 281.445312 182.640625 L 93.21875 182.640625 C 91.8125 182.640625 90.675781 181.503906 90.675781 180.09375 C 90.675781 178.6875 91.8125 177.546875 93.21875 177.546875 L 281.445312 177.546875 C 282.851562 177.546875 283.988281 178.683594 283.988281 180.09375 C 283.988281 181.503906 282.851562 182.640625 281.445312 182.640625 Z M 281.445312 182.640625 " fill-opacity="1" fill-rule="nonzero"/><path fill="#000000" d="M 281.445312 203.023438 L 93.21875 203.023438 C 91.8125 203.023438 90.675781 201.882812 90.675781 200.472656 C 90.675781 199.066406 91.8125 197.925781 93.21875 197.925781 L 281.445312 197.925781 C 282.851562 197.925781 283.988281 199.066406 283.988281 200.472656 C 283.988281 201.882812 282.851562 203.023438 281.445312 203.023438 Z M 281.445312 203.023438 " fill-opacity="1" fill-rule="nonzero"/><path fill="#000000" d="M 271.269531 192.832031 L 103.394531 192.832031 C 101.988281 192.832031 100.847656 191.695312 100.847656 190.285156 C 100.847656 188.878906 101.988281 187.738281 103.394531 187.738281 L 271.269531 187.738281 C 272.675781 187.738281 273.816406 188.878906 273.816406 190.285156 C 273.8125 191.695312 272.675781 192.832031 271.269531 192.832031 Z M 271.269531 192.832031 " fill-opacity="1" fill-rule="nonzero"/><path fill="#000000" d="M 103.394531 284.550781 C 102.460938 284.550781 101.566406 284.03125 101.117188 283.140625 C 100.488281 281.882812 100.996094 280.355469 102.253906 279.722656 L 112.429688 274.628906 C 113.6875 273.996094 115.210938 274.511719 115.84375 275.765625 C 116.472656 277.027344 115.960938 278.554688 114.703125 279.183594 L 104.53125 284.28125 C 104.164062 284.464844 103.777344 284.550781 103.394531 284.550781 Z M 103.394531 284.550781 " fill-opacity="1" fill-rule="nonzero"/><path fill="#000000" d="M 271.269531 284.550781 C 270.882812 284.550781 270.496094 284.464844 270.132812 284.28125 L 259.957031 279.183594 C 258.703125 278.554688 258.195312 277.027344 258.820312 275.765625 C 259.453125 274.511719 260.976562 273.996094 262.234375 274.628906 L 272.410156 279.722656 C 273.664062 280.355469 274.171875 281.882812 273.546875 283.140625 C 273.097656 284.03125 272.203125 284.550781 271.269531 284.550781 Z M 271.269531 284.550781 " fill-opacity="1" fill-rule="nonzero"/><path fill="#000000" d="M 261.097656 279.453125 L 113.566406 279.453125 C 112.160156 279.453125 111.023438 278.316406 111.023438 276.90625 C 111.023438 275.496094 112.160156 274.359375 113.566406 274.359375 L 261.097656 274.359375 C 262.503906 274.359375 263.640625 275.496094 263.640625 276.90625 C 263.640625 278.316406 262.503906 279.453125 261.097656 279.453125 Z M 261.097656 279.453125 " fill-opacity="1" fill-rule="nonzero"/><path fill="#000000" d="M 189.875 279.453125 L 159.351562 279.453125 C 157.945312 279.453125 156.808594 278.316406 156.808594 276.90625 L 156.808594 241.238281 C 156.808594 239.828125 157.945312 238.691406 159.351562 238.691406 L 189.875 238.691406 C 191.28125 238.691406 192.417969 239.828125 192.417969 241.238281 L 192.417969 276.90625 C 192.417969 278.316406 191.28125 279.453125 189.875 279.453125 Z M 161.894531 274.359375 L 187.332031 274.359375 L 187.332031 243.785156 L 161.894531 243.785156 Z M 161.894531 274.359375 " fill-opacity="1" fill-rule="nonzero"/><path fill="#000000" d="M 189.875 218.308594 L 159.351562 218.308594 C 157.945312 218.308594 156.808594 217.167969 156.808594 215.761719 L 156.808594 210.664062 C 156.808594 209.257812 157.945312 208.117188 159.351562 208.117188 C 160.757812 208.117188 161.894531 209.257812 161.894531 210.664062 L 161.894531 213.210938 L 187.332031 213.210938 L 187.332031 210.664062 C 187.332031 209.257812 188.46875 208.117188 189.875 208.117188 C 191.28125 208.117188 192.417969 209.257812 192.417969 210.664062 L 192.417969 215.761719 C 192.417969 217.167969 191.28125 218.308594 189.875 218.308594 Z M 189.875 218.308594 " fill-opacity="1" fill-rule="nonzero"/><path fill="#000000" d="M 220.398438 279.453125 L 189.875 279.453125 C 188.46875 279.453125 187.332031 278.316406 187.332031 276.90625 L 187.332031 241.238281 C 187.332031 239.828125 188.46875 238.691406 189.875 238.691406 L 220.398438 238.691406 C 221.804688 238.691406 222.941406 239.828125 222.941406 241.238281 L 222.941406 276.90625 C 222.941406 278.316406 221.804688 279.453125 220.398438 279.453125 Z M 192.417969 274.359375 L 217.855469 274.359375 L 217.855469 243.785156 L 192.417969 243.785156 Z M 192.417969 274.359375 " fill-opacity="1" fill-rule="nonzero"/><path fill="#000000" d="M 220.398438 218.308594 L 189.875 218.308594 C 188.46875 218.308594 187.332031 217.167969 187.332031 215.761719 L 187.332031 210.664062 C 187.332031 209.257812 188.46875 208.117188 189.875 208.117188 C 191.28125 208.117188 192.417969 209.257812 192.417969 210.664062 L 192.417969 213.210938 L 217.855469 213.210938 L 217.855469 210.664062 C 217.855469 209.257812 218.992188 208.117188 220.398438 208.117188 C 221.804688 208.117188 222.941406 209.257812 222.941406 210.664062 L 222.941406 215.761719 C 222.941406 217.167969 221.804688 218.308594 220.398438 218.308594 Z M 220.398438 218.308594 " fill-opacity="1" fill-rule="nonzero"/><path fill="#000000" d="M 159.351562 279.453125 L 128.828125 279.453125 C 127.421875 279.453125 126.285156 278.316406 126.285156 276.90625 L 126.285156 241.238281 C 126.285156 239.828125 127.421875 238.691406 128.828125 238.691406 L 159.351562 238.691406 C 160.757812 238.691406 161.894531 239.828125 161.894531 241.238281 L 161.894531 276.90625 C 161.894531 278.316406 160.757812 279.453125 159.351562 279.453125 Z M 131.371094 274.359375 L 156.808594 274.359375 L 156.808594 243.785156 L 131.371094 243.785156 Z M 131.371094 274.359375 " fill-opacity="1" fill-rule="nonzero"/><path fill="#000000" d="M 159.351562 218.308594 L 128.828125 218.308594 C 127.421875 218.308594 126.285156 217.167969 126.285156 215.761719 L 126.285156 210.664062 C 126.285156 209.257812 127.421875 208.117188 128.828125 208.117188 C 130.234375 208.117188 131.371094 209.257812 131.371094 210.664062 L 131.371094 213.210938 L 156.808594 213.210938 L 156.808594 210.664062 C 156.808594 209.257812 157.945312 208.117188 159.351562 208.117188 C 160.757812 208.117188 161.894531 209.257812 161.894531 210.664062 L 161.894531 215.761719 C 161.894531 217.167969 160.757812 218.308594 159.351562 218.308594 Z M 159.351562 218.308594 " fill-opacity="1" fill-rule="nonzero"/><path fill="#000000" d="M 261.097656 279.453125 C 259.691406 279.453125 258.550781 278.316406 258.550781 276.90625 L 258.550781 210.664062 C 258.550781 209.257812 259.691406 208.117188 261.097656 208.117188 C 262.503906 208.117188 263.640625 209.257812 263.640625 210.664062 L 263.640625 276.90625 C 263.640625 278.316406 262.503906 279.453125 261.097656 279.453125 Z M 261.097656 279.453125 " fill-opacity="1" fill-rule="nonzero"/><path fill="#000000" d="M 113.566406 279.453125 C 112.160156 279.453125 111.023438 278.316406 111.023438 276.90625 L 111.023438 210.664062 C 111.023438 209.257812 112.160156 208.117188 113.566406 208.117188 C 114.972656 208.117188 116.109375 209.257812 116.109375 210.664062 L 116.109375 276.90625 C 116.109375 278.316406 114.972656 279.453125 113.566406 279.453125 Z M 113.566406 279.453125 " fill-opacity="1" fill-rule="nonzero"/><path fill="#000000" d="M 235.660156 264.167969 C 234.253906 264.167969 233.117188 263.027344 233.117188 261.621094 L 233.117188 215.761719 C 233.117188 214.351562 234.253906 213.210938 235.660156 213.210938 C 237.066406 213.210938 238.203125 214.351562 238.203125 215.761719 L 238.203125 261.621094 C 238.203125 263.027344 237.066406 264.167969 235.660156 264.167969 Z M 235.660156 264.167969 " fill-opacity="1" fill-rule="nonzero"/><path fill="#000000" d="M 245.835938 264.167969 C 244.429688 264.167969 243.289062 263.027344 243.289062 261.621094 L 243.289062 215.761719 C 243.289062 214.351562 244.429688 213.210938 245.835938 213.210938 C 247.242188 213.210938 248.378906 214.351562 248.378906 215.761719 L 248.378906 261.621094 C 248.378906 263.027344 247.242188 264.167969 245.835938 264.167969 Z M 245.835938 264.167969 " fill-opacity="1" fill-rule="nonzero"/><path fill="#000000" d="M 327.230469 299.835938 L 306.882812 299.835938 C 305.476562 299.835938 304.339844 298.695312 304.339844 297.289062 C 304.339844 295.878906 305.476562 294.742188 306.882812 294.742188 L 327.230469 294.742188 C 328.636719 294.742188 329.773438 295.878906 329.773438 297.289062 C 329.773438 298.695312 328.636719 299.835938 327.230469 299.835938 Z M 327.230469 299.835938 " fill-opacity="1" fill-rule="nonzero"/><path fill="#000000" d="M 67.78125 299.835938 L 47.433594 299.835938 C 46.027344 299.835938 44.890625 298.695312 44.890625 297.289062 C 44.890625 295.878906 46.027344 294.742188 47.433594 294.742188 L 67.78125 294.742188 C 69.1875 294.742188 70.324219 295.878906 70.324219 297.289062 C 70.324219 298.695312 69.1875 299.835938 67.78125 299.835938 Z M 67.78125 299.835938 " fill-opacity="1" fill-rule="nonzero"/><g clip-path="url(#7bc09ba610)"><path fill="#000000" d="M 47.433594 310.027344 C 46.027344 310.027344 44.890625 308.886719 44.890625 307.480469 L 44.890625 297.289062 C 44.890625 295.878906 46.027344 294.742188 47.433594 294.742188 C 48.839844 294.742188 49.976562 295.878906 49.976562 297.289062 L 49.976562 307.480469 C 49.976562 308.886719 48.839844 310.027344 47.433594 310.027344 Z M 47.433594 310.027344 " fill-opacity="1" fill-rule="nonzero"/></g><g clip-path="url(#c4860a38ac)"><path fill="#000000" d="M 83.042969 310.027344 L 47.433594 310.027344 C 46.027344 310.027344 44.890625 308.886719 44.890625 307.480469 C 44.890625 306.070312 46.027344 304.933594 47.433594 304.933594 L 83.042969 304.933594 C 84.449219 304.933594 85.585938 306.070312 85.585938 307.480469 C 85.585938 308.886719 84.449219 310.027344 83.042969 310.027344 Z M 83.042969 310.027344 " fill-opacity="1" fill-rule="nonzero"/></g><g clip-path="url(#58c80fbfda)"><path fill="#000000" d="M 327.230469 310.027344 C 325.824219 310.027344 324.6875 308.886719 324.6875 307.480469 L 324.6875 297.289062 C 324.6875 295.878906 325.824219 294.742188 327.230469 294.742188 C 328.636719 294.742188 329.773438 295.878906 329.773438 297.289062 L 329.773438 307.480469 C 329.773438 308.886719 328.636719 310.027344 327.230469 310.027344 Z M 327.230469 310.027344 " fill-opacity="1" fill-rule="nonzero"/></g><g clip-path="url(#57fea09743)"><path fill="#000000" d="M 327.230469 310.027344 L 291.621094 310.027344 C 290.214844 310.027344 289.078125 308.886719 289.078125 307.480469 C 289.078125 306.070312 290.214844 304.933594 291.621094 304.933594 L 327.230469 304.933594 C 328.636719 304.933594 329.773438 306.070312 329.773438 307.480469 C 329.773438 308.886719 328.636719 310.027344 327.230469 310.027344 Z M 327.230469 310.027344 " fill-opacity="1" fill-rule="nonzero"/></g><path fill="#000000" d="M 225.484375 146.972656 L 149.175781 146.972656 C 147.773438 146.972656 146.632812 145.832031 146.632812 144.425781 L 146.632812 124.042969 C 146.632812 122.636719 147.769531 121.496094 149.175781 121.496094 L 225.484375 121.496094 C 226.890625 121.496094 228.03125 122.636719 228.03125 124.042969 L 228.03125 144.425781 C 228.03125 145.832031 226.890625 146.972656 225.484375 146.972656 Z M 151.722656 141.878906 L 222.941406 141.878906 L 222.941406 126.589844 L 151.722656 126.589844 Z M 151.722656 141.878906 " fill-opacity="1" fill-rule="nonzero"/><path fill="#000000" d="M 187.332031 146.972656 C 185.925781 146.972656 184.789062 145.832031 184.789062 144.425781 L 184.789062 124.042969 C 184.789062 122.636719 185.925781 121.496094 187.332031 121.496094 C 188.738281 121.496094 189.875 122.636719 189.875 124.042969 L 189.875 144.425781 C 189.875 145.832031 188.738281 146.972656 187.332031 146.972656 Z M 187.332031 146.972656 " fill-opacity="1" fill-rule="nonzero"/><path fill="#000000" d="M 225.484375 136.78125 L 149.175781 136.78125 C 147.773438 136.78125 146.632812 135.640625 146.632812 134.234375 C 146.632812 132.824219 147.769531 131.6875 149.175781 131.6875 L 225.484375 131.6875 C 226.890625 131.6875 228.03125 132.824219 228.03125 134.234375 C 228.03125 135.640625 226.890625 136.78125 225.484375 136.78125 Z M 225.484375 136.78125 " fill-opacity="1" fill-rule="nonzero"/><path fill="#000000" d="M 154.265625 241.238281 C 152.859375 241.238281 151.722656 240.097656 151.722656 238.691406 C 151.722656 235.878906 149.4375 233.59375 146.632812 233.59375 C 143.828125 233.59375 141.546875 235.878906 141.546875 238.691406 C 141.546875 240.097656 140.410156 241.238281 139.003906 241.238281 C 137.597656 241.238281 136.460938 240.097656 136.460938 238.691406 C 136.460938 233.074219 141.023438 228.5 146.632812 228.5 C 152.246094 228.5 156.808594 233.074219 156.808594 238.691406 C 156.808594 240.097656 155.671875 241.238281 154.265625 241.238281 Z M 154.265625 241.238281 " fill-opacity="1" fill-rule="nonzero"/><path fill="#000000" d="M 146.632812 233.59375 C 145.226562 233.59375 144.089844 232.457031 144.089844 231.046875 L 144.089844 228.5 C 144.089844 227.089844 145.226562 225.953125 146.632812 225.953125 C 148.039062 225.953125 149.179688 227.089844 149.179688 228.5 L 149.179688 231.046875 C 149.175781 232.457031 148.039062 233.59375 146.632812 233.59375 Z M 146.632812 233.59375 " fill-opacity="1" fill-rule="nonzero"/><path fill="#000000" d="M 156.808594 241.238281 L 154.265625 241.238281 C 152.859375 241.238281 151.722656 240.097656 151.722656 238.691406 C 151.722656 237.28125 152.859375 236.140625 154.265625 236.140625 L 156.808594 236.140625 C 158.214844 236.140625 159.351562 237.28125 159.351562 238.691406 C 159.351562 240.097656 158.214844 241.238281 156.808594 241.238281 Z M 156.808594 241.238281 " fill-opacity="1" fill-rule="nonzero"/><path fill="#000000" d="M 139.003906 241.238281 L 136.460938 241.238281 C 135.054688 241.238281 133.914062 240.097656 133.914062 238.691406 C 133.914062 237.28125 135.054688 236.140625 136.460938 236.140625 L 139.003906 236.140625 C 140.410156 236.140625 141.546875 237.28125 141.546875 238.691406 C 141.546875 240.097656 140.410156 241.238281 139.003906 241.238281 Z M 139.003906 241.238281 " fill-opacity="1" fill-rule="nonzero"/><path fill="#000000" d="M 153.242188 237.417969 C 152.363281 237.417969 151.507812 236.957031 151.039062 236.140625 C 150.335938 234.921875 150.753906 233.367188 151.96875 232.664062 L 154.171875 231.390625 C 155.378906 230.671875 156.9375 231.101562 157.644531 232.320312 C 158.347656 233.539062 157.929688 235.097656 156.714844 235.796875 L 154.511719 237.074219 C 154.113281 237.304688 153.675781 237.417969 153.242188 237.417969 Z M 153.242188 237.417969 " fill-opacity="1" fill-rule="nonzero"/><path fill="#000000" d="M 150.441406 234.621094 C 150.011719 234.621094 149.574219 234.511719 149.171875 234.277344 C 147.953125 233.574219 147.539062 232.015625 148.242188 230.796875 L 149.511719 228.59375 C 150.21875 227.375 151.769531 226.953125 152.988281 227.664062 C 154.207031 228.367188 154.621094 229.921875 153.917969 231.140625 L 152.648438 233.347656 C 152.175781 234.164062 151.320312 234.621094 150.441406 234.621094 Z M 150.441406 234.621094 " fill-opacity="1" fill-rule="nonzero"/><path fill="#000000" d="M 142.8125 234.628906 C 141.929688 234.628906 141.074219 234.171875 140.601562 233.351562 L 139.335938 231.140625 C 138.636719 229.921875 139.058594 228.363281 140.277344 227.664062 C 141.496094 226.964844 143.050781 227.382812 143.75 228.605469 L 145.015625 230.8125 C 145.714844 232.03125 145.292969 233.589844 144.074219 234.289062 C 143.675781 234.519531 143.242188 234.628906 142.8125 234.628906 Z M 142.8125 234.628906 " fill-opacity="1" fill-rule="nonzero"/><path fill="#000000" d="M 140.015625 237.429688 C 139.578125 237.429688 139.140625 237.320312 138.738281 237.089844 L 136.542969 235.808594 C 135.328125 235.097656 134.914062 233.539062 135.621094 232.324219 C 136.328125 231.101562 137.886719 230.695312 139.101562 231.398438 L 141.296875 232.679688 C 142.511719 233.390625 142.921875 234.949219 142.214844 236.164062 C 141.742188 236.976562 140.890625 237.429688 140.015625 237.429688 Z M 140.015625 237.429688 " fill-opacity="1" fill-rule="nonzero"/><path fill="#000000" d="M 179.699219 233.515625 C 178.296875 233.515625 177.15625 232.375 177.15625 230.96875 L 177.15625 225.953125 C 177.15625 224.542969 178.296875 223.402344 179.699219 223.402344 C 181.105469 223.402344 182.246094 224.542969 182.246094 225.953125 L 182.246094 230.96875 C 182.246094 232.375 181.105469 233.515625 179.699219 233.515625 Z M 179.699219 233.515625 " fill-opacity="1" fill-rule="nonzero"/><path fill="#000000" d="M 200.050781 233.515625 C 198.644531 233.515625 197.507812 232.375 197.507812 230.96875 L 197.507812 225.953125 C 197.507812 224.542969 198.644531 223.402344 200.050781 223.402344 C 201.457031 223.402344 202.59375 224.542969 202.59375 225.953125 L 202.59375 230.96875 C 202.59375 232.375 201.457031 233.515625 200.050781 233.515625 Z M 200.050781 233.515625 " fill-opacity="1" fill-rule="nonzero"/><path fill="#000000" d="M 220.398438 233.515625 C 218.992188 233.515625 217.855469 232.375 217.855469 230.96875 L 217.855469 225.953125 C 217.855469 224.542969 218.992188 223.402344 220.398438 223.402344 C 221.804688 223.402344 222.941406 224.542969 222.941406 225.953125 L 222.941406 230.96875 C 222.941406 232.375 221.804688 233.515625 220.398438 233.515625 Z M 220.398438 233.515625 " fill-opacity="1" fill-rule="nonzero"/></svg>