<svg xmlns="http://www.w3.org/2000/svg" xmlns:xlink="http://www.w3.org/1999/xlink" width="500" zoomAndPan="magnify" viewBox="0 0 375 374.999991" height="500" preserveAspectRatio="xMidYMid meet" version="1.0"><defs><clipPath id="c046c91d60"><path d="M 81.570312 132.390625 L 306.144531 132.390625 L 306.144531 194.167969 L 81.570312 194.167969 Z M 81.570312 132.390625 " clip-rule="nonzero"/></clipPath><clipPath id="b975bcbd54"><path d="M 84.3125 132.628906 L 295.890625 132.390625 L 300.183594 133.582031 L 302.808594 135.730469 L 305.074219 140.738281 L 305.789062 146.226562 L 306.144531 157.4375 L 306.027344 185.222656 L 305.074219 188.445312 L 303.761719 190.234375 L 300.898438 191.902344 L 297.796875 193.097656 L 282.171875 194.050781 L 90.632812 194.167969 L 87.414062 193.574219 L 84.90625 191.425781 L 83.359375 188.445312 L 82.285156 182.957031 L 81.6875 169.601562 L 81.6875 136.207031 L 82.164062 134.179688 L 84.074219 133.105469 L 86.101562 133.820312 L 86.9375 135.847656 L 86.101562 137.875 L 85.148438 138.351562 L 83 138.234375 L 81.6875 136.445312 L 81.6875 135.253906 L 82.164062 134.296875 L 83.953125 133.105469 L 86.101562 133.703125 L 86.9375 135.730469 L 87.292969 177.949219 L 88.246094 186.773438 L 88.964844 188.800781 L 89.917969 189.398438 L 99.9375 188.683594 L 282.53125 188.683594 L 295.890625 188.085938 L 298.035156 187.253906 L 299.707031 185.820312 L 301.019531 184.03125 L 301.136719 182.957031 L 300.183594 143.957031 L 299.824219 141.8125 L 298.035156 138.949219 L 296.367188 137.636719 L 295.171875 137.519531 L 290.761719 137.996094 L 84.667969 137.996094 L 82.640625 137.398438 L 81.570312 135.492188 L 82.285156 133.464844 L 84.3125 132.628906 " clip-rule="nonzero"/></clipPath><clipPath id="b387b77024"><path d="M 37.5 133.464844 L 87.832031 133.464844 L 87.832031 192.617188 L 37.5 192.617188 Z M 37.5 133.464844 " clip-rule="nonzero"/></clipPath><clipPath id="97178e0dda"><path d="M 40.242188 133.582031 L 81.867188 133.464844 L 84.132812 134.417969 L 86.160156 135.847656 L 87.351562 137.636719 L 87.589844 139.308594 L 87.832031 183.792969 L 87.472656 187.96875 L 86.757812 189.996094 L 84.371094 191.546875 L 80.675781 192.5 L 43.226562 192.617188 L 41.675781 192.261719 L 39.648438 190.710938 L 37.976562 188.324219 L 37.621094 186.65625 L 37.5 139.1875 L 37.621094 136.207031 L 38.097656 135.132812 L 40.242188 134.058594 L 41.914062 134.535156 L 42.628906 135.492188 L 42.867188 136.800781 L 42.390625 138.351562 L 41.4375 139.1875 L 39.765625 139.425781 L 38.335938 138.589844 L 37.621094 137.160156 L 37.738281 135.96875 L 38.691406 134.535156 L 40.242188 134.058594 L 41.4375 134.296875 L 42.390625 135.132812 L 42.984375 136.800781 L 42.984375 182.601562 L 42.390625 186.773438 L 43.105469 187.609375 L 46.445312 187.132812 L 81.269531 187.492188 L 82.464844 187.132812 L 82.34375 143.839844 L 82.703125 139.664062 L 82.464844 138.832031 L 81.269531 138.589844 L 78.40625 138.949219 L 40.125 138.949219 L 37.976562 137.757812 L 37.5 136.207031 L 38.335938 134.296875 L 40.242188 133.582031 " clip-rule="nonzero"/></clipPath><clipPath id="7942225df5"><path d="M 95.941406 190.351562 L 294.695312 190.351562 L 294.695312 212.773438 L 95.941406 212.773438 Z M 95.941406 190.351562 " clip-rule="nonzero"/></clipPath><clipPath id="148508a5d5"><path d="M 99.824219 190.472656 L 285.578125 190.351562 L 288.109375 190.589844 L 290.476562 191.546875 L 293.515625 194.648438 L 294.695312 201.445312 L 293.683594 208.363281 L 291.152344 210.867188 L 286.253906 212.179688 L 275.445312 212.65625 L 108.605469 212.773438 L 104.046875 212.535156 L 100.835938 211.582031 L 98.472656 209.792969 L 96.953125 207.40625 L 96.109375 199.894531 L 96.109375 192.976562 L 97.121094 191.308594 L 99.65625 190.589844 L 101.34375 190.710938 L 102.695312 191.546875 L 103.539062 192.617188 L 103.203125 194.527344 L 102.019531 195.480469 L 99.488281 195.957031 L 97.121094 195.125 L 96.277344 194.050781 L 96.277344 192.261719 L 97.964844 190.949219 L 100.667969 190.710938 L 102.863281 191.664062 L 103.539062 192.859375 L 104.382812 205.976562 L 105.734375 207.527344 L 107.421875 207.886719 L 123.464844 207.289062 L 283.214844 207.050781 L 286.761719 206.335938 L 287.605469 205.378906 L 287.097656 195.957031 L 286.589844 195.363281 L 284.902344 195.125 L 278.824219 195.839844 L 100.332031 195.839844 L 97.796875 195.363281 L 96.445312 194.40625 L 95.941406 193.214844 L 97.292969 191.070312 L 99.824219 190.472656 " clip-rule="nonzero"/></clipPath><clipPath id="b1550b0a3e"><path d="M 300.898438 133.464844 L 351.230469 133.464844 L 351.230469 192.617188 L 300.898438 192.617188 Z M 300.898438 133.464844 " clip-rule="nonzero"/></clipPath><clipPath id="0b24b722e8"><path d="M 303.640625 133.582031 L 345.265625 133.464844 L 347.53125 134.417969 L 349.558594 135.847656 L 350.75 137.636719 L 350.988281 139.308594 L 351.230469 183.792969 L 350.871094 187.96875 L 350.15625 189.996094 L 347.769531 191.546875 L 344.074219 192.5 L 306.625 192.617188 L 305.074219 192.261719 L 303.046875 190.710938 L 301.375 188.324219 L 301.019531 186.65625 L 300.898438 139.1875 L 301.019531 136.207031 L 301.496094 135.132812 L 303.640625 134.058594 L 305.3125 134.535156 L 306.027344 135.492188 L 306.265625 136.800781 L 305.789062 138.351562 L 304.835938 139.1875 L 303.164062 139.425781 L 301.734375 138.589844 L 301.019531 137.160156 L 301.136719 135.96875 L 302.089844 134.535156 L 303.640625 134.058594 L 304.835938 134.296875 L 305.789062 135.132812 L 306.382812 136.800781 L 306.382812 182.601562 L 305.789062 186.773438 L 306.503906 187.609375 L 309.84375 187.132812 L 344.667969 187.492188 L 345.863281 187.132812 L 345.742188 143.839844 L 346.101562 139.664062 L 345.863281 138.832031 L 344.667969 138.589844 L 341.808594 138.949219 L 303.523438 138.949219 L 301.375 137.757812 L 300.898438 136.207031 L 301.734375 134.296875 L 303.640625 133.582031 " clip-rule="nonzero"/></clipPath><clipPath id="1e026cd702"><path d="M 309.496094 142.496094 L 341.792969 142.496094 L 341.792969 153 L 309.496094 153 Z M 309.496094 142.496094 " clip-rule="nonzero"/></clipPath><clipPath id="8338d1235b"><path d="M 312.152344 144.914062 C 339.496094 142.765625 339.945312 142.886719 340.394531 143.480469 C 341.023438 144.195312 341.648438 145.867188 341.558594 146.941406 C 341.46875 148.015625 340.84375 149.683594 340.125 150.160156 C 339.230469 150.757812 337.257812 150.519531 336.449219 149.683594 C 335.730469 148.96875 335.285156 147.058594 335.464844 145.984375 C 335.730469 144.792969 337.167969 142.765625 338.152344 142.648438 C 339.140625 142.527344 340.933594 144.078125 341.378906 145.152344 C 341.738281 145.867188 341.738281 146.941406 341.46875 147.773438 C 341.203125 148.730469 340.753906 149.800781 339.496094 150.519531 C 335.730469 152.785156 315.917969 153.261719 312.242188 152.1875 C 311.257812 151.949219 310.898438 151.589844 310.449219 150.996094 C 310 150.398438 309.644531 149.324219 309.730469 148.492188 C 309.910156 147.296875 312.152344 144.914062 312.152344 144.914062 " clip-rule="nonzero"/></clipPath><clipPath id="9d36be3c23"><path d="M 309.496094 157.761719 L 341.792969 157.761719 L 341.792969 168 L 309.496094 168 Z M 309.496094 157.761719 " clip-rule="nonzero"/></clipPath><clipPath id="7f4ef3ad91"><path d="M 312.152344 160.179688 C 339.496094 158.03125 339.945312 158.152344 340.394531 158.746094 C 341.023438 159.464844 341.648438 161.132812 341.558594 162.207031 C 341.46875 163.28125 340.84375 164.949219 340.125 165.425781 C 339.230469 166.023438 337.257812 165.785156 336.449219 164.949219 C 335.730469 164.234375 335.285156 162.324219 335.464844 161.253906 C 335.730469 160.058594 337.167969 158.03125 338.152344 157.914062 C 339.140625 157.792969 340.933594 159.34375 341.378906 160.417969 C 341.738281 161.132812 341.738281 162.207031 341.46875 163.042969 C 341.203125 163.996094 340.753906 165.070312 339.496094 165.785156 C 335.730469 168.050781 315.917969 168.527344 312.242188 167.453125 C 311.257812 167.214844 310.898438 166.859375 310.449219 166.261719 C 310 165.664062 309.644531 164.589844 309.730469 163.757812 C 309.910156 162.5625 312.152344 160.179688 312.152344 160.179688 " clip-rule="nonzero"/></clipPath><clipPath id="8a3ba579ac"><path d="M 309.496094 173.507812 L 341.792969 173.507812 L 341.792969 184 L 309.496094 184 Z M 309.496094 173.507812 " clip-rule="nonzero"/></clipPath><clipPath id="888b6bb3e5"><path d="M 312.152344 175.921875 C 339.496094 173.773438 339.945312 173.894531 340.394531 174.492188 C 341.023438 175.207031 341.648438 176.875 341.558594 177.949219 C 341.46875 179.023438 340.84375 180.691406 340.125 181.167969 C 339.230469 181.765625 337.257812 181.527344 336.449219 180.691406 C 335.730469 179.976562 335.285156 178.070312 335.464844 176.996094 C 335.730469 175.800781 337.167969 173.773438 338.152344 173.65625 C 339.140625 173.535156 340.933594 175.085938 341.378906 176.160156 C 341.738281 176.875 341.738281 177.949219 341.46875 178.785156 C 341.203125 179.738281 340.753906 180.8125 339.496094 181.527344 C 335.730469 183.792969 315.917969 184.269531 312.242188 183.195312 C 311.257812 182.957031 310.898438 182.601562 310.449219 182.003906 C 310 181.40625 309.644531 180.335938 309.730469 179.5 C 309.910156 178.308594 312.152344 175.921875 312.152344 175.921875 " clip-rule="nonzero"/></clipPath><clipPath id="79760d06d8"><path d="M 44.726562 142.617188 L 77 142.617188 L 77 153 L 44.726562 153 Z M 44.726562 142.617188 " clip-rule="nonzero"/></clipPath><clipPath id="edc0af4563"><path d="M 47.382812 145.03125 C 74.726562 142.886719 75.175781 143.003906 75.625 143.601562 C 76.25 144.316406 76.878906 145.984375 76.789062 147.058594 C 76.699219 148.132812 76.074219 149.800781 75.355469 150.28125 C 74.457031 150.875 72.488281 150.636719 71.679688 149.800781 C 70.960938 149.085938 70.515625 147.179688 70.691406 146.105469 C 70.960938 144.914062 72.398438 142.886719 73.382812 142.765625 C 74.371094 142.648438 76.164062 144.195312 76.609375 145.269531 C 76.96875 145.984375 76.96875 147.058594 76.699219 147.894531 C 76.429688 148.847656 75.984375 149.921875 74.726562 150.636719 C 70.960938 152.902344 51.148438 153.378906 47.472656 152.308594 C 46.488281 152.070312 46.128906 151.710938 45.679688 151.113281 C 45.230469 150.519531 44.871094 149.445312 44.960938 148.609375 C 45.140625 147.417969 47.382812 145.03125 47.382812 145.03125 " clip-rule="nonzero"/></clipPath><clipPath id="a770c5cc6d"><path d="M 44.726562 158 L 77 158 L 77 168.691406 L 44.726562 168.691406 Z M 44.726562 158 " clip-rule="nonzero"/></clipPath><clipPath id="87e08a2155"><path d="M 47.382812 160.296875 C 74.726562 158.152344 75.175781 158.269531 75.625 158.867188 C 76.25 159.582031 76.878906 161.253906 76.789062 162.324219 C 76.699219 163.398438 76.074219 165.070312 75.355469 165.546875 C 74.457031 166.140625 72.488281 165.902344 71.679688 165.070312 C 70.960938 164.351562 70.515625 162.445312 70.691406 161.371094 C 70.960938 160.179688 72.398438 158.152344 73.382812 158.03125 C 74.371094 157.914062 76.164062 159.464844 76.609375 160.535156 C 76.96875 161.253906 76.96875 162.324219 76.699219 163.160156 C 76.429688 164.113281 75.984375 165.1875 74.726562 165.902344 C 70.960938 168.167969 51.148438 168.648438 47.472656 167.574219 C 46.488281 167.335938 46.128906 166.976562 45.679688 166.378906 C 45.230469 165.785156 44.871094 164.710938 44.960938 163.875 C 45.140625 162.683594 47.382812 160.296875 47.382812 160.296875 " clip-rule="nonzero"/></clipPath><clipPath id="5ee9968e3a"><path d="M 44.726562 173.625 L 77 173.625 L 77 184 L 44.726562 184 Z M 44.726562 173.625 " clip-rule="nonzero"/></clipPath><clipPath id="6eed770e42"><path d="M 47.382812 176.042969 C 74.726562 173.894531 75.175781 174.011719 75.625 174.609375 C 76.25 175.324219 76.878906 176.996094 76.789062 178.070312 C 76.699219 179.140625 76.074219 180.8125 75.355469 181.289062 C 74.457031 181.886719 72.488281 181.648438 71.679688 180.8125 C 70.960938 180.097656 70.515625 178.1875 70.691406 177.113281 C 70.960938 175.921875 72.398438 173.894531 73.382812 173.773438 C 74.371094 173.65625 76.164062 175.207031 76.609375 176.28125 C 76.96875 176.996094 76.96875 178.070312 76.699219 178.902344 C 76.429688 179.859375 75.984375 180.929688 74.726562 181.648438 C 70.960938 183.914062 51.148438 184.390625 47.472656 183.316406 C 46.488281 183.078125 46.128906 182.71875 45.679688 182.125 C 45.230469 181.527344 44.871094 180.453125 44.960938 179.617188 C 45.140625 178.425781 47.382812 176.042969 47.382812 176.042969 " clip-rule="nonzero"/></clipPath><clipPath id="0fb68461a9"><path d="M 95.941406 147.835938 L 290.054688 147.835938 L 290.054688 178.722656 L 95.941406 178.722656 Z M 95.941406 147.835938 " clip-rule="nonzero"/></clipPath><clipPath id="0e84e3df4f"><path d="M 99.015625 147.917969 L 279.09375 147.835938 L 283.773438 148.234375 L 286.179688 149.027344 L 288.71875 151.488281 L 289.519531 154.269531 L 290.054688 172.925781 L 289.121094 175.070312 L 287.648438 176.5 L 282.703125 178.085938 L 269.335938 178.640625 L 105.433594 178.722656 L 101.824219 178.164062 L 99.417969 177.214844 L 97.945312 175.785156 L 96.742188 173.640625 L 96.074219 167.449219 L 96.074219 149.902344 L 97.277344 148.472656 L 99.148438 148.15625 L 100.886719 148.550781 L 101.957031 149.980469 L 100.621094 151.410156 L 98.882812 151.726562 L 97.144531 151.332031 L 96.074219 150.378906 L 96.207031 149.265625 L 98.347656 148.234375 L 100.21875 148.234375 L 101.957031 149.503906 L 102.222656 170.386719 L 103.558594 174.277344 L 104.628906 175.226562 L 105.433594 175.386719 L 109.308594 175.070312 L 270.269531 175.070312 L 277.890625 174.832031 L 282.433594 174.039062 L 283.90625 173.324219 L 284.308594 172.765625 L 283.640625 154.746094 L 280.699219 151.886719 L 278.023438 151.25 L 274.28125 151.488281 L 99.015625 151.488281 L 96.609375 150.695312 L 95.941406 149.664062 L 96.609375 148.632812 L 99.015625 147.917969 " clip-rule="nonzero"/></clipPath></defs><g clip-path="url(#c046c91d60)"><g clip-path="url(#b975bcbd54)"><path fill="#000000" d="M 81.570312 132.390625 L 306.144531 132.390625 L 306.144531 194.167969 L 81.570312 194.167969 Z M 81.570312 132.390625 " fill-opacity="1" fill-rule="nonzero"/></g></g><g clip-path="url(#b387b77024)"><g clip-path="url(#97178e0dda)"><path fill="#000000" d="M 37.5 133.464844 L 87.832031 133.464844 L 87.832031 192.617188 L 37.5 192.617188 Z M 37.5 133.464844 " fill-opacity="1" fill-rule="nonzero"/></g></g><g clip-path="url(#7942225df5)"><g clip-path="url(#148508a5d5)"><path fill="#000000" d="M 95.941406 190.351562 L 294.695312 190.351562 L 294.695312 212.773438 L 95.941406 212.773438 Z M 95.941406 190.351562 " fill-opacity="1" fill-rule="nonzero"/></g></g><g clip-path="url(#b1550b0a3e)"><g clip-path="url(#0b24b722e8)"><path fill="#000000" d="M 300.898438 133.464844 L 351.230469 133.464844 L 351.230469 192.617188 L 300.898438 192.617188 Z M 300.898438 133.464844 " fill-opacity="1" fill-rule="nonzero"/></g></g><g clip-path="url(#1e026cd702)"><g clip-path="url(#8338d1235b)"><path fill="#000000" d="M 306.144531 137.875 L 345.144531 137.875 L 345.144531 156.957031 L 306.144531 156.957031 Z M 306.144531 137.875 " fill-opacity="1" fill-rule="nonzero"/></g></g><g clip-path="url(#9d36be3c23)"><g clip-path="url(#7f4ef3ad91)"><path fill="#000000" d="M 306.144531 153.140625 L 345.144531 153.140625 L 345.144531 172.226562 L 306.144531 172.226562 Z M 306.144531 153.140625 " fill-opacity="1" fill-rule="nonzero"/></g></g><g clip-path="url(#8a3ba579ac)"><g clip-path="url(#888b6bb3e5)"><path fill="#000000" d="M 306.144531 168.886719 L 345.144531 168.886719 L 345.144531 187.96875 L 306.144531 187.96875 Z M 306.144531 168.886719 " fill-opacity="1" fill-rule="nonzero"/></g></g><g clip-path="url(#79760d06d8)"><g clip-path="url(#edc0af4563)"><path fill="#000000" d="M 41.375 137.996094 L 80.375 137.996094 L 80.375 157.078125 L 41.375 157.078125 Z M 41.375 137.996094 " fill-opacity="1" fill-rule="nonzero"/></g></g><g clip-path="url(#a770c5cc6d)"><g clip-path="url(#87e08a2155)"><path fill="#000000" d="M 41.375 153.261719 L 80.375 153.261719 L 80.375 172.34375 L 41.375 172.34375 Z M 41.375 153.261719 " fill-opacity="1" fill-rule="nonzero"/></g></g><g clip-path="url(#5ee9968e3a)"><g clip-path="url(#6eed770e42)"><path fill="#000000" d="M 41.375 169.003906 L 80.375 169.003906 L 80.375 188.085938 L 41.375 188.085938 Z M 41.375 169.003906 " fill-opacity="1" fill-rule="nonzero"/></g></g><g clip-path="url(#0fb68461a9)"><g clip-path="url(#0e84e3df4f)"><path fill="#000000" d="M 95.941406 147.835938 L 290.054688 147.835938 L 290.054688 178.722656 L 95.941406 178.722656 Z M 95.941406 147.835938 " fill-opacity="1" fill-rule="nonzero"/></g></g></svg>