<svg xmlns="http://www.w3.org/2000/svg" xmlns:xlink="http://www.w3.org/1999/xlink" width="500" zoomAndPan="magnify" viewBox="0 0 375 374.999991" height="500" preserveAspectRatio="xMidYMid meet" version="1.0"><defs><clipPath id="74ae312bb6"><path d="M 14.867188 23.574219 L 342.617188 23.574219 L 342.617188 351.324219 L 14.867188 351.324219 Z M 14.867188 23.574219 " clip-rule="nonzero"/></clipPath></defs><g clip-path="url(#74ae312bb6)"><path fill="#000000" d="M 342.617188 187.449219 C 342.617188 190.132812 342.550781 192.8125 342.417969 195.488281 C 342.289062 198.167969 342.089844 200.84375 341.828125 203.511719 C 341.566406 206.179688 341.234375 208.839844 340.84375 211.496094 C 340.449219 214.148438 339.992188 216.789062 339.46875 219.417969 C 338.945312 222.050781 338.355469 224.664062 337.707031 227.265625 C 337.054688 229.867188 336.339844 232.453125 335.558594 235.019531 C 334.78125 237.585938 333.941406 240.132812 333.035156 242.65625 C 332.132812 245.183594 331.167969 247.683594 330.140625 250.160156 C 329.117188 252.640625 328.03125 255.089844 326.882812 257.515625 C 325.734375 259.9375 324.53125 262.332031 323.265625 264.699219 C 322.003906 267.0625 320.679688 269.398438 319.300781 271.699219 C 317.921875 273.996094 316.488281 276.261719 315 278.492188 C 313.507812 280.722656 311.964844 282.914062 310.367188 285.070312 C 308.769531 287.222656 307.121094 289.335938 305.417969 291.410156 C 303.71875 293.484375 301.964844 295.511719 300.164062 297.5 C 298.363281 299.488281 296.515625 301.429688 294.617188 303.324219 C 292.722656 305.222656 290.78125 307.070312 288.792969 308.871094 C 286.804688 310.671875 284.777344 312.425781 282.703125 314.125 C 280.628906 315.828125 278.515625 317.476562 276.363281 319.074219 C 274.207031 320.671875 272.015625 322.214844 269.785156 323.707031 C 267.554688 325.195312 265.289062 326.628906 262.988281 328.007812 C 260.691406 329.386719 258.355469 330.710938 255.992188 331.972656 C 253.625 333.238281 251.230469 334.445312 248.808594 335.589844 C 246.382812 336.738281 243.929688 337.824219 241.453125 338.851562 C 238.976562 339.875 236.472656 340.839844 233.949219 341.746094 C 231.425781 342.648438 228.878906 343.488281 226.3125 344.269531 C 223.746094 345.046875 221.160156 345.761719 218.558594 346.414062 C 215.957031 347.066406 213.34375 347.652344 210.710938 348.175781 C 208.082031 348.699219 205.441406 349.15625 202.785156 349.550781 C 200.132812 349.945312 197.472656 350.273438 194.804688 350.535156 C 192.136719 350.796875 189.460938 350.996094 186.78125 351.125 C 184.105469 351.257812 181.421875 351.324219 178.742188 351.324219 C 176.058594 351.324219 173.378906 351.257812 170.699219 351.125 C 168.023438 350.996094 165.347656 350.796875 162.679688 350.535156 C 160.011719 350.273438 157.347656 349.945312 154.695312 349.550781 C 152.042969 349.15625 149.402344 348.699219 146.769531 348.175781 C 144.140625 347.652344 141.523438 347.066406 138.921875 346.414062 C 136.320312 345.761719 133.738281 345.046875 131.171875 344.269531 C 128.605469 343.488281 126.058594 342.648438 123.535156 341.746094 C 121.007812 340.839844 118.507812 339.875 116.027344 338.851562 C 113.550781 337.824219 111.101562 336.738281 108.675781 335.589844 C 106.25 334.445312 103.855469 333.238281 101.492188 331.972656 C 99.125 330.710938 96.792969 329.386719 94.492188 328.007812 C 92.191406 326.628906 89.925781 325.195312 87.699219 323.707031 C 85.46875 322.214844 83.277344 320.671875 81.121094 319.074219 C 78.96875 317.476562 76.851562 315.828125 74.78125 314.125 C 72.707031 312.425781 70.675781 310.671875 68.691406 308.871094 C 66.703125 307.070312 64.761719 305.222656 62.863281 303.324219 C 60.96875 301.429688 59.121094 299.488281 57.316406 297.5 C 55.515625 295.511719 53.765625 293.484375 52.0625 291.410156 C 50.363281 289.335938 48.714844 287.222656 47.117188 285.070312 C 45.519531 282.914062 43.972656 280.722656 42.484375 278.492188 C 40.996094 276.261719 39.558594 273.996094 38.179688 271.699219 C 36.800781 269.398438 35.480469 267.0625 34.214844 264.699219 C 32.953125 262.332031 31.746094 259.9375 30.601562 257.515625 C 29.453125 255.089844 28.367188 252.640625 27.339844 250.160156 C 26.3125 247.683594 25.347656 245.183594 24.445312 242.65625 C 23.542969 240.132812 22.703125 237.585938 21.921875 235.019531 C 21.144531 232.453125 20.429688 229.867188 19.777344 227.265625 C 19.125 224.664062 18.539062 222.050781 18.015625 219.417969 C 17.492188 216.789062 17.035156 214.148438 16.640625 211.496094 C 16.246094 208.839844 15.917969 206.179688 15.65625 203.511719 C 15.394531 200.84375 15.195312 198.167969 15.0625 195.488281 C 14.933594 192.8125 14.867188 190.132812 14.867188 187.449219 C 14.867188 184.765625 14.933594 182.085938 15.0625 179.40625 C 15.195312 176.730469 15.394531 174.054688 15.65625 171.386719 C 15.917969 168.71875 16.246094 166.054688 16.640625 163.402344 C 17.035156 160.75 17.492188 158.109375 18.015625 155.480469 C 18.539062 152.847656 19.125 150.230469 19.777344 147.628906 C 20.429688 145.027344 21.144531 142.445312 21.921875 139.878906 C 22.703125 137.3125 23.542969 134.765625 24.445312 132.242188 C 25.347656 129.714844 26.3125 127.214844 27.339844 124.738281 C 28.367188 122.257812 29.453125 119.808594 30.601562 117.382812 C 31.746094 114.957031 32.953125 112.5625 34.214844 110.199219 C 35.480469 107.832031 36.800781 105.5 38.179688 103.199219 C 39.558594 100.898438 40.996094 98.636719 42.484375 96.40625 C 43.972656 94.175781 45.519531 91.984375 47.117188 89.828125 C 48.714844 87.675781 50.363281 85.5625 52.0625 83.488281 C 53.765625 81.414062 55.515625 79.382812 57.316406 77.398438 C 59.121094 75.410156 60.96875 73.46875 62.863281 71.570312 C 64.761719 69.675781 66.703125 67.828125 68.691406 66.027344 C 70.675781 64.222656 72.707031 62.472656 74.78125 60.773438 C 76.851562 59.070312 78.96875 57.421875 81.121094 55.824219 C 83.277344 54.226562 85.46875 52.683594 87.699219 51.191406 C 89.925781 49.703125 92.191406 48.265625 94.492188 46.890625 C 96.792969 45.511719 99.125 44.1875 101.492188 42.925781 C 103.855469 41.660156 106.25 40.453125 108.675781 39.308594 C 111.101562 38.160156 113.550781 37.074219 116.027344 36.046875 C 118.507812 35.023438 121.007812 34.058594 123.535156 33.152344 C 126.058594 32.25 128.605469 31.410156 131.171875 30.628906 C 133.738281 29.851562 136.320312 29.136719 138.921875 28.484375 C 141.523438 27.832031 144.140625 27.246094 146.769531 26.722656 C 149.402344 26.199219 152.042969 25.742188 154.695312 25.347656 C 157.347656 24.953125 160.011719 24.625 162.679688 24.363281 C 165.347656 24.101562 168.023438 23.902344 170.699219 23.769531 C 173.378906 23.640625 176.058594 23.574219 178.742188 23.574219 C 181.421875 23.574219 184.105469 23.640625 186.78125 23.769531 C 189.460938 23.902344 192.136719 24.101562 194.804688 24.363281 C 197.472656 24.625 200.132812 24.953125 202.785156 25.347656 C 205.441406 25.742188 208.082031 26.199219 210.710938 26.722656 C 213.34375 27.246094 215.957031 27.832031 218.558594 28.484375 C 221.160156 29.136719 223.746094 29.851562 226.3125 30.628906 C 228.878906 31.410156 231.425781 32.25 233.949219 33.152344 C 236.472656 34.058594 238.976562 35.023438 241.453125 36.046875 C 243.929688 37.074219 246.382812 38.160156 248.808594 39.308594 C 251.230469 40.453125 253.625 41.660156 255.992188 42.925781 C 258.355469 44.1875 260.691406 45.511719 262.988281 46.890625 C 265.289062 48.265625 267.554688 49.703125 269.785156 51.191406 C 272.015625 52.683594 274.207031 54.226562 276.363281 55.824219 C 278.515625 57.421875 280.628906 59.070312 282.703125 60.773438 C 284.777344 62.472656 286.804688 64.222656 288.792969 66.027344 C 290.78125 67.828125 292.722656 69.675781 294.617188 71.570312 C 296.515625 73.46875 298.363281 75.410156 300.164062 77.398438 C 301.964844 79.382812 303.71875 81.414062 305.417969 83.488281 C 307.121094 85.5625 308.769531 87.675781 310.367188 89.828125 C 311.964844 91.984375 313.507812 94.175781 315 96.40625 C 316.488281 98.636719 317.921875 100.898438 319.300781 103.199219 C 320.679688 105.5 322.003906 107.832031 323.265625 110.199219 C 324.53125 112.5625 325.734375 114.957031 326.882812 117.382812 C 328.03125 119.808594 329.117188 122.257812 330.140625 124.738281 C 331.167969 127.214844 332.132812 129.714844 333.035156 132.242188 C 333.941406 134.765625 334.78125 137.3125 335.558594 139.878906 C 336.339844 142.445312 337.054688 145.027344 337.707031 147.628906 C 338.355469 150.230469 338.945312 152.847656 339.46875 155.480469 C 339.992188 158.109375 340.449219 160.75 340.84375 163.402344 C 341.234375 166.054688 341.566406 168.71875 341.828125 171.386719 C 342.089844 174.054688 342.289062 176.730469 342.417969 179.40625 C 342.550781 182.085938 342.617188 184.765625 342.617188 187.449219 Z M 342.617188 187.449219 " fill-opacity="1" fill-rule="nonzero"/></g><path fill="#ffffff" d="M 251.164062 115.027344 C 231.820312 95.679688 206.097656 85.027344 178.742188 85.027344 C 151.382812 85.027344 125.664062 95.679688 106.316406 115.027344 C 86.972656 134.371094 76.320312 160.089844 76.320312 187.449219 C 76.320312 214.808594 86.972656 240.527344 106.316406 259.871094 C 125.664062 279.21875 151.382812 289.871094 178.742188 289.871094 C 206.097656 289.871094 231.820312 279.21875 251.164062 259.871094 C 270.507812 240.527344 281.164062 214.808594 281.164062 187.449219 C 281.164062 160.089844 270.507812 134.371094 251.164062 115.027344 Z M 87.648438 187.449219 C 87.648438 176.042969 89.761719 165.121094 93.609375 155.046875 L 130.449219 155.046875 C 128.796875 165.355469 127.933594 176.269531 127.933594 187.449219 C 127.933594 198.253906 128.738281 208.8125 130.28125 218.8125 L 93.210938 218.8125 C 89.613281 209.03125 87.648438 198.464844 87.648438 187.449219 Z M 139.261719 187.449219 C 139.261719 176.195312 140.175781 165.265625 141.921875 155.046875 L 173.078125 155.046875 L 173.078125 218.8125 L 141.746094 218.8125 C 140.113281 208.890625 139.261719 198.320312 139.261719 187.449219 Z M 205.53125 121.425781 C 208.636719 128.085938 211.210938 135.59375 213.214844 143.71875 L 184.40625 143.71875 L 184.40625 97.40625 C 192.085938 100.222656 199.558594 108.628906 205.53125 121.425781 Z M 173.078125 97.40625 L 173.078125 143.71875 L 144.269531 143.71875 C 146.273438 135.59375 148.847656 128.085938 151.953125 121.425781 C 157.921875 108.628906 165.398438 100.222656 173.078125 97.40625 Z M 173.078125 230.140625 L 173.078125 277.492188 C 165.398438 274.675781 157.921875 266.269531 151.953125 253.472656 C 148.714844 246.53125 146.054688 238.664062 144.019531 230.140625 Z M 184.40625 277.492188 L 184.40625 230.140625 L 213.464844 230.140625 C 211.425781 238.664062 208.769531 246.53125 205.53125 253.472656 C 199.558594 266.269531 192.085938 274.675781 184.40625 277.492188 Z M 184.40625 218.8125 L 184.40625 155.046875 L 215.5625 155.046875 C 217.308594 165.265625 218.21875 176.195312 218.21875 187.449219 C 218.21875 198.320312 217.371094 208.890625 215.738281 218.8125 Z M 227.035156 155.046875 L 263.875 155.046875 C 267.722656 165.121094 269.835938 176.042969 269.835938 187.449219 C 269.835938 198.464844 267.867188 209.03125 264.269531 218.8125 L 227.199219 218.8125 C 228.746094 208.8125 229.546875 198.253906 229.546875 187.449219 C 229.546875 176.269531 228.6875 165.355469 227.035156 155.046875 Z M 258.632812 143.71875 L 224.84375 143.71875 C 222.585938 133.828125 219.546875 124.679688 215.796875 116.636719 C 212.882812 110.398438 209.628906 105.019531 206.105469 100.558594 C 228.648438 107.671875 247.425781 123.332031 258.632812 143.71875 Z M 151.378906 100.558594 C 147.851562 105.019531 144.597656 110.398438 141.6875 116.636719 C 137.933594 124.679688 134.898438 133.828125 132.640625 143.71875 L 98.851562 143.71875 C 110.054688 123.332031 128.835938 107.671875 151.378906 100.558594 Z M 98.292969 230.140625 L 132.402344 230.140625 C 134.683594 240.433594 137.804688 249.9375 141.6875 258.261719 C 144.597656 264.5 147.851562 269.878906 151.378906 274.339844 C 128.457031 267.105469 109.425781 251.035156 98.292969 230.140625 Z M 206.105469 274.339844 C 209.628906 269.878906 212.882812 264.5 215.796875 258.261719 C 219.679688 249.9375 222.800781 240.433594 225.078125 230.140625 L 259.191406 230.140625 C 248.058594 251.035156 229.027344 267.105469 206.105469 274.339844 Z M 206.105469 274.339844 " fill-opacity="1" fill-rule="nonzero"/></svg>